<svg xmlns="http://www.w3.org/2000/svg" width="24" height="24" viewBox="0 0 24 24"><path d="M107.356,313a2.356,2.356,0,1,0,2.356,2.356A2.356,2.356,0,0,0,107.356,313Zm0,1.57a.785.785,0,1,1-.785.785A.785.785,0,0,1,107.356,314.57Z" transform="translate(-98.441 -293.711)" fill="#202020" fill-rule="evenodd"/><g transform="translate(16.52 19.289)"><path d="M117.356,313a2.356,2.356,0,1,0,2.356,2.356A2.356,2.356,0,0,0,117.356,313Zm0,1.57a.785.785,0,1,1-.785.785A.785.785,0,0,1,117.356,314.57Z" transform="translate(-115 -313)" fill="#202020" fill-rule="evenodd"/></g><path d="M99.676,291.284c.241,1.43,2.756,13.525,2.756,13.525a2.434,2.434,0,0,0,2.385,1.91h12a2.434,2.434,0,0,0,2.385-1.91l1.741-8.054a2.4,2.4,0,0,0-.488-2.026,2.446,2.446,0,0,0-1.9-.9H101.753l-.473-2.813A2.432,2.432,0,0,0,98.874,289H97.813a.805.805,0,1,0,0,1.611h1.062A.81.81,0,0,1,99.676,291.284Zm19.681,5.134-1.742,8.054a.811.811,0,0,1-.795.636h-12a.811.811,0,0,1-.795-.636l-1.952-9.028h16.492a.816.816,0,0,1,.632.3A.8.8,0,0,1,119.357,296.418Z" transform="translate(-97 -289)" fill="#202020" fill-rule="evenodd"/></svg>