<svg xmlns="http://www.w3.org/2000/svg" width="15.6" height="19.854" viewBox="0 0 15.6 19.854"><g transform="translate(-5.625 -2.25)"><path d="M15.852,15.954a3.477,3.477,0,1,1,3.477-3.477,3.477,3.477,0,0,1-3.477,3.477Zm0-5.564a2.086,2.086,0,1,0,2.086,2.086,2.086,2.086,0,0,0-2.086-2.086Z" transform="translate(-2.427 -2.45)" fill="#f3f3f3"/><path d="M13.425,22.1,7.443,15.05q-.125-.159-.246-.32a7.721,7.721,0,0,1-1.571-4.68,7.8,7.8,0,1,1,15.6,0,7.718,7.718,0,0,1-1.571,4.678v0s-.212.279-.245.317Zm-5.1-8.229s.166.218.2.265l4.894,5.772,4.9-5.779c.031-.039.2-.259.2-.26a6.312,6.312,0,0,0,1.284-3.823,6.382,6.382,0,0,0-12.764,0,6.314,6.314,0,0,0,1.286,3.825Z" fill="#f3f3f3"/></g></svg>