<svg xmlns="http://www.w3.org/2000/svg" width="15.6" height="15.6" viewBox="0 0 15.6 15.6"><path d="M15.6,12.32a3.657,3.657,0,0,1-.111.781,4.4,4.4,0,0,1-.233.759A2.972,2.972,0,0,1,13.9,15.035a4.3,4.3,0,0,1-2.061.565,4.422,4.422,0,0,1-.587-.039,4.492,4.492,0,0,1-.637-.139q-.349-.1-.521-.161t-.615-.227q-.443-.166-.543-.2A10.03,10.03,0,0,1,7,13.916a16.7,16.7,0,0,1-2.925-2.393A16.7,16.7,0,0,1,1.684,8.6a10.047,10.047,0,0,1-.92-1.939q-.033-.1-.2-.543T.338,5.5Q.277,5.329.177,4.98a4.592,4.592,0,0,1-.139-.637A4.32,4.32,0,0,1,0,3.756,4.3,4.3,0,0,1,.565,1.7,2.972,2.972,0,0,1,1.739.344,4.413,4.413,0,0,1,2.5.111,3.652,3.652,0,0,1,3.279,0a.618.618,0,0,1,.233.033q.2.066.587.842.122.211.332.6t.388.7q.177.316.344.593.033.044.194.277a3.155,3.155,0,0,1,.238.393.715.715,0,0,1,.078.316.919.919,0,0,1-.316.554,5.412,5.412,0,0,1-.687.609,6.686,6.686,0,0,0-.687.587.844.844,0,0,0-.316.51.747.747,0,0,0,.055.249q.055.149.094.227t.155.266q.117.188.127.211a11.627,11.627,0,0,0,1.928,2.6,11.627,11.627,0,0,0,2.6,1.928q.022.011.211.127t.266.155a2.326,2.326,0,0,0,.227.094.762.762,0,0,0,.249.055.844.844,0,0,0,.51-.316,6.686,6.686,0,0,0,.587-.687,5.412,5.412,0,0,1,.609-.687.919.919,0,0,1,.554-.316.723.723,0,0,1,.316.078,3.086,3.086,0,0,1,.393.238q.233.161.277.194.277.166.593.344t.7.388q.388.211.6.332.776.388.842.587a.618.618,0,0,1,.033.233Z" fill="#f3f3f3"/></svg>