<svg xmlns="http://www.w3.org/2000/svg" width="26.006" height="21.13" viewBox="0 0 26.006 21.13"><g transform="translate(0)" opacity="0.5"><g transform="translate(0 0)"><path d="M26.006,50.5a11.115,11.115,0,0,1-3.072.842A5.3,5.3,0,0,0,25.279,48.4,10.655,10.655,0,0,1,21.9,49.687a5.331,5.331,0,0,0-9.222,3.646,5.49,5.49,0,0,0,.124,1.216A15.091,15.091,0,0,1,1.811,48.972,5.333,5.333,0,0,0,3.449,56.1a5.265,5.265,0,0,1-2.409-.657V55.5a5.356,5.356,0,0,0,4.271,5.239,5.321,5.321,0,0,1-1.4.176A4.713,4.713,0,0,1,2.9,60.822a5.382,5.382,0,0,0,4.982,3.714,10.712,10.712,0,0,1-6.61,2.274A9.985,9.985,0,0,1,0,66.737,15.009,15.009,0,0,0,8.179,69.13,15.07,15.07,0,0,0,23.353,53.959c0-.236-.008-.463-.02-.689A10.636,10.636,0,0,0,26.006,50.5Z" transform="translate(0 -48)" fill="#00cbff"/></g></g></svg>