<svg xmlns="http://www.w3.org/2000/svg" width="20.8" height="24" viewBox="0 0 20.8 24"><g transform="translate(-5 -3)"><path d="M16.56,14.294A5.648,5.648,0,1,0,11,8.647a5.6,5.6,0,0,0,5.56,5.647Zm0-9.68a4.034,4.034,0,1,1-3.971,4.033A4,4,0,0,1,16.56,4.613Z" transform="translate(-1.16)"/><path d="M25.376,23.333a13.65,13.65,0,0,0-19.944,0A1.621,1.621,0,0,0,5,24.438v4.243a1.607,1.607,0,0,0,1.6,1.613H24.2a1.607,1.607,0,0,0,1.6-1.613V24.438A1.621,1.621,0,0,0,25.376,23.333ZM24.2,28.681H6.6V24.43a12.067,12.067,0,0,1,17.6,0Z" transform="translate(0 -3.294)"/></g></svg>